<svg width="1280" height="400" viewBox="0 0 1280 400" fill="none" xmlns="http://www.w3.org/2000/svg" xmlns:xlink="http://www.w3.org/1999/xlink">
  <defs>
    <linearGradient id="grad1" x1="0%" y1="0%" x2="100%" y2="100%">
      <stop offset="0%" style="stop-color:#1A1B27;stop-opacity:1" />
      <stop offset="100%" style="stop-color:#0D1117;stop-opacity:1" />
    </linearGradient>
    <style>
      .title { font-family: 'Segoe UI', 'Roboto', 'Helvetica', sans-serif; font-size: 72px; font-weight: 700; fill: #CDD6F4; }
      .subtitle { font-family: 'Segoe UI', 'Roboto', 'Helvetica', sans-serif; font-size: 32px; font-weight: 400; fill: #A6ADC8; }
    </style>
  </defs>

  <rect width="1280" height="400" fill="url(#grad1)"/>

  <g transform="translate(60, 160)">
    <text y="0" class="title">Terry K.</text>
    <text y="60" class="subtitle">CTO | AI & Web3 Architect | Product Leader</text>
  </g>

  <g transform="translate(1000, 160)" fill="#A6ADC8" opacity="0.6">
    <!-- AI Icon -->
    <g transform="translate(0, 0) scale(1.5)">
      <path d="M12 2C6.48 2 2 6.48 2 12s4.48 10 10 10 10-4.48 10-10S17.52 2 12 2zm0 18c-4.41 0-8-3.59-8-8s3.59-8 8-8 8 3.59 8 8-3.59 8-8 8zM11 7h2v2h-2zm0 4h2v6h-2z"/>
      <circle cx="12" cy="12" r="3"/>
    </g>
    <!-- Web3 Icon -->
    <g transform="translate(70, 0) scale(1.5)">
      <path d="M21 7L12 2 3 7v10l9 5 9-5V7zm-9 11.33L5.67 15 12 11.67 18.33 15 12 18.33zM12 9.33L5.67 6 12 2.67 18.33 6 12 9.33z"/>
    </g>
    <!-- Code Icon -->
    <g transform="translate(140, 0) scale(1.5)">
      <path d="M9.4 16.6L4.8 12l4.6-4.6L8 6l-6 6 6 6 1.4-1.4zm5.2 0l4.6-4.6-4.6-4.6L16 6l6 6-6 6-1.4-1.4z"/>
    </g>
  </g>
</svg>
